<svg version="1.0" xmlns="http://www.w3.org/2000/svg" width="300" height="200" viewBox="0 0 477 371">
  <path
    d="M251.5 57.1c-14.8.4-31.6.7-37.2.8L204 58v4.4c0 2.4-.6 4.8-1.3 5.4-1.6 1.3-9.7.4-9.8-1.2-.1-.6-.2-2.7-.3-4.6l-.1-3.5-27.5.4c-15.1.2-39.6.7-54.5 1l-27 .6-.3 4c-.5 5.3-1.8 6.7-6.1 6.3l-3.6-.3V85c0 32.9 4.3 222.2 5.1 222.9.3.3 2.2.4 4.3.3 4.5-.3 5.4.6 5.5 5.7l.1 3.6 62-.3c59.1-.2 96.7-1.1 148.4-3.3 12.9-.5 38.4-1.2 56.7-1.6l33.3-.6.3-4.6.3-4.6 4.5-.5 4.5-.5-.2-24.5c-.3-25.7-1.8-100.2-3-139.7l-.6-23.2-4.6-.3-4.6-.3-.5-4.5-.5-4.5-11.5-.3c-6.3-.2-21.3.1-33.2.7-12 .5-22.7.7-23.8.4-1.9-.5-2-1.4-2.1-15.7 0-8.3-.4-17.1-.7-19.6l-.7-4.5h-9l-.3-4.8-.3-4.8-12.2.3c-6.7.1-24.3.6-39.2.9zm42.3 12.4c.4 5 1.2 5.8 5.9 5.9l3.8.1.7 14c.4 7.7.4 14.3 0 14.7-.9.8-98 3.1-99.3 2.3-.5-.4-.9-7.1-.9-15.1V77h9v-4.5c0-2.7.5-4.7 1.3-5 1.7-.7 51.8-2.2 66.7-2.1l12.5.1.3 4zM183 72.6l.5 4.9h4.2c2.3 0 4.7.5 5.2 1 .6.6 1.2 8.6 1.3 19.5l.3 18.5h25c13.8 0 53.9-.6 89.1-1.4 35.3-.8 64.9-1.1 65.9-.7 1.2.4 1.6 1.6 1.3 4.3l-.3 3.8 5.3.3 5.2.3v6.2c.1 3.4.9 41.1 1.9 83.7 1 42.6 1.7 77.8 1.4 78.3-.2.4-2.2.7-4.3.7-4.6 0-5.5 1.1-5.5 6.5v4l-23.5.7c-12.9.3-59.5 1.4-103.5 2.3-44 .8-96.4 2-116.4 2.5s-36.8.7-37.2.4c-.5-.3-.9-2.5-.9-4.9 0-4.7-1.2-5.8-5.8-4.9-5.4.9-4.7 13.2-8.2-153.6-.5-25-1.1-49.8-1.2-55l-.2-9.5 4.9-.5 5-.5.5-5 .5-5 11.5-.3c6.3-.1 25.9-.6 43.5-1.1 17.6-.4 32.5-.7 33-.6.6.1 1.2 2.4 1.5 5.1z" />
  <path
    d="M276.3 135.6c-1.6.7-1.7 7.6-.2 9.1.6.6 3 .8 5.5.5l4.4-.5V155h-4.9c-5.5 0-5.8.4-5.3 6.1l.4 3.9h9.8v-10h9.9l.3 4.7.3 4.8h9l.3-4.8.3-4.7H296v-10h4.4c2.5 0 4.7-.4 5.1-.9.3-.6.3-2.8-.1-5-.7-4.1-.7-4.1-5-4.1H296v10h-9.9l-.3-4.8-.3-4.7-4-.2c-2.2-.1-4.6 0-5.2.3zM168.8 137.8l-3.8.3v9.9h-9.9l-.3-4.8-.3-4.7h-10v9l5.3.3 5.2.3v9.9h-10v10.1l4.8-.3 4.7-.3.3-4.8.3-4.7h9.9v4.4c0 5.3.5 5.6 9.3 4.7.4-.1.7-2.2.5-4.9l-.3-4.7-4.7-.3-4.8-.3v-8.8l4.8-.3 4.7-.3.3-4.1c.4-4.9-.9-6-6-5.6zM199.7 186.8l-3.8.3.3 4.7.3 4.7 4.8.3 4.7.3v-4.9c0-5.5-.5-5.9-6.3-5.4zM236 191v5h-13.4c-7.4 0-14.1.3-15 .6-2.2.8-2.2 9.2-.1 10.1.9.3 7.7.2 15.3-.3l13.7-.9-.2-4.7-.3-4.7 4.8-.3 4.7-.3.3-4.8.3-4.7H236v5zM228 236.1c-14.6.3-32 .7-38.7.8l-12.3.1v10h-5.4c-2.9 0-7.4.3-10 .6l-4.6.7v8.5l-10.1.7-10 .7.3 4.7.3 4.6h19l.3-5.3.3-5.2H177v-9.7l24.2-.6c13.3-.4 31.5-.7 40.5-.7H258v9.3l20-.6 20-.5v4.1c0 5.5.9 6.7 4.5 6.2 1.7-.2 5.8-.4 9.3-.4l6.2-.1v-10h-20v-9h-40v-3.8c0-3.4-1.5-6.5-2.9-6-.4.1-12.5.5-27.1.9zM327.3 263.7l-8.3.4v10l9.8-.3 9.7-.3.1-3.5c.1-3.6-1.1-7.2-2.4-6.8-.4.1-4.4.4-8.9.5z" />
</svg>